<svg xmlns="http://www.w3.org/2000/svg" viewBox="0 0 512 512" width="512" height="512" role="img" aria-label="signal-kernels mark"><title>signal-kernels mark</title><desc>A ring drawn around a bright core, with the signal element inside the ring.</desc><defs><radialGradient id="mk-signal-kernels-md1-halo" r="50%"><stop offset="0" stop-color="#ffab52" stop-opacity="0.34"/><stop offset="0.35" stop-color="#ffab52" stop-opacity="0.1"/><stop offset="1" stop-color="#ffab52" stop-opacity="0"/></radialGradient><radialGradient id="mk-signal-kernels-md1-core"><stop offset="0" stop-color="#fff7e8"/><stop offset="0.45" stop-color="#fff7e8" stop-opacity="0.96"/><stop offset="0.72" stop-color="#ffd592" stop-opacity="0.55"/><stop offset="1" stop-color="#ffab52" stop-opacity="0"/></radialGradient></defs><rect width="512" height="512" rx="56" fill="#040405"/><circle cx="256" cy="256" r="196" fill="none" stroke="#e6e1d6" stroke-width="40" opacity="1"/><polyline points="256,406 241.63,401 228.24,396 216.4,391 206.58,386 199.17,381 194.42,376 192.47,371 193.35,366 196.92,361 202.96,356 211.13,351 221.03,346 232.16,341 243.99,336 256,331 267.64,326 278.42,321 287.89,316 295.67,311 301.47,306 305.1,301 306.47,296 305.6,291 302.6,286 297.68,281 291.11,276 283.26,271 274.51,266 265.28,261 256,256 247.09,251 238.92,246 231.83,241 226.09,236 221.9,231 219.38,226 218.58,221 219.45,216 221.88,211 225.69,206 230.64,201 236.46,196 242.83,191 249.45,186 256,181 262.19,176 267.74,171 272.46,166 276.16,161 278.73,156 280.13,151 280.37,146 279.5,141 277.64,136 274.94,131 271.61,126 267.83,121 263.83,116 259.82,111 256,106" fill="none" stroke="#e6e1d6" stroke-width="28" stroke-opacity="1" stroke-linecap="round" stroke-linejoin="round"/><circle cx="256" cy="256" r="42.5" fill="#e6e1d6" opacity="1"/></svg>
